<svg width="32" height="32" viewBox="0 0 32 32" fill="none" xmlns="http://www.w3.org/2000/svg">
<path d="M0 16C0 7.16344 7.16344 0 16 0C24.8366 0 32 7.16344 32 16C32 24.8366 24.8366 32 16 32C7.16344 32 0 24.8366 0 16Z" fill="#F1F1F1"/>
<path d="M14.1538 10C13.472 10 13.2283 10.606 12.9231 11.2L12.3077 12.4H9.84615C8.82338 12.4 8 13.2028 8 14.2V20.2C8 21.1972 8.82338 22 9.84615 22H22.1538C23.1766 22 24 21.1972 24 20.2V14.2C24 13.2028 23.1766 12.4 22.1538 12.4H19.6923L19.0769 11.2C18.7692 10.6 18.528 10 17.8462 10H14.1538ZM9.84615 13.6C10.0094 13.6 10.1659 13.6632 10.2813 13.7757C10.3967 13.8883 10.4615 14.0409 10.4615 14.2C10.4615 14.3591 10.3967 14.5117 10.2813 14.6243C10.1659 14.7368 10.0094 14.8 9.84615 14.8C9.68294 14.8 9.52642 14.7368 9.41101 14.6243C9.2956 14.5117 9.23077 14.3591 9.23077 14.2C9.23077 14.0409 9.2956 13.8883 9.41101 13.7757C9.52642 13.6632 9.68294 13.6 9.84615 13.6ZM16 13.6C16.9793 13.6 17.9184 13.9793 18.6109 14.6544C19.3033 15.3295 19.6923 16.2452 19.6923 17.2C19.6923 18.1548 19.3033 19.0705 18.6109 19.7456C17.9184 20.4207 16.9793 20.8 16 20.8C15.0207 20.8 14.0816 20.4207 13.3891 19.7456C12.6967 19.0705 12.3077 18.1548 12.3077 17.2C12.3077 16.2452 12.6967 15.3295 13.3891 14.6544C14.0816 13.9793 15.0207 13.6 16 13.6ZM16 15.4C15.5104 15.4 15.0408 15.5896 14.6946 15.9272C14.3484 16.2648 14.1538 16.7226 14.1538 17.2C14.1538 17.6774 14.3484 18.1352 14.6946 18.4728C15.0408 18.8104 15.5104 19 16 19C16.4896 19 16.9592 18.8104 17.3054 18.4728C17.6516 18.1352 17.8462 17.6774 17.8462 17.2C17.8462 16.7226 17.6516 16.2648 17.3054 15.9272C16.9592 15.5896 16.4896 15.4 16 15.4Z" fill="#070723" fill-opacity="0.5"/>
</svg>
