<svg width="32" height="32" viewBox="0 0 32 32" fill="none" xmlns="http://www.w3.org/2000/svg">
<path d="M0 16C0 7.16344 7.16344 0 16 0C24.8366 0 32 7.16344 32 16C32 24.8366 24.8366 32 16 32C7.16344 32 0 24.8366 0 16Z" fill="#F1F1F1"/>
<path d="M14.4 19.1111V18.3333H8.808L8.8 21.4444C8.8 22.3078 9.512 23 10.4 23H21.6C22.488 23 23.2 22.3078 23.2 21.4444V18.3333H17.6V19.1111H14.4ZM22.4 12.1111H19.192V10.5556L17.592 9H14.392L12.792 10.5556V12.1111H9.6C8.72 12.1111 8 12.8111 8 13.6667V16C8 16.8633 8.712 17.5556 9.6 17.5556H14.4V16H17.6V17.5556H22.4C23.28 17.5556 24 16.8556 24 16V13.6667C24 12.8111 23.28 12.1111 22.4 12.1111ZM17.6 12.1111H14.4V10.5556H17.6V12.1111Z" fill="#070723" fill-opacity="0.5"/>
</svg>
