<svg width="19" height="18" viewBox="0 0 19 18" fill="none" xmlns="http://www.w3.org/2000/svg">
<path d="M7.25 8.25H5.75V9.75H7.25V8.25ZM10.25 8.25H8.75V9.75H10.25V8.25ZM13.25 8.25H11.75V9.75H13.25V8.25ZM14.75 3H14V1.5H12.5V3H6.5V1.5H5V3H4.25C3.4175 3 2.7575 3.675 2.7575 4.5L2.75 15C2.75 15.3978 2.90804 15.7794 3.18934 16.0607C3.47064 16.342 3.85218 16.5 4.25 16.5H14.75C15.575 16.5 16.25 15.825 16.25 15V4.5C16.25 3.675 15.575 3 14.75 3ZM14.75 15H4.25V6.75H14.75V15Z" fill="#070723" fill-opacity="0.5"/>
</svg>
