<svg width="6" height="11" viewBox="0 0 6 11" fill="none" xmlns="http://www.w3.org/2000/svg">
<path d="M4.81409 10.0045C4.94325 10.131 5.10763 10.2 5.30137 10.2C5.68885 10.2 6 9.90102 6 9.52153C6 9.33179 5.91781 9.1593 5.78278 9.02706L1.67319 5.09425L5.78278 1.17294C5.91781 1.0407 6 0.862458 6 0.678467C6 0.298985 5.68885 0 5.30137 0C5.10763 0 4.94325 0.0689966 4.81409 0.19549L0.246575 4.56528C0.0821918 4.71477 0.00587084 4.89876 0 5.1C0 5.30124 0.0821918 5.47373 0.246575 5.62897L4.81409 10.0045Z" fill="#4F4F4F"/>
</svg>
