<svg width="45" height="45" viewBox="0 0 45 45" fill="none" xmlns="http://www.w3.org/2000/svg">
<circle cx="22.5" cy="22.5" r="21.5" fill="#197BEB" stroke="white" stroke-width="2"/>
<path d="M22.5 26.612C24.5711 26.612 26.25 24.8957 26.25 22.7786C26.25 20.6616 24.5711 18.9453 22.5 18.9453C20.4289 18.9453 18.75 20.6616 18.75 22.7786C18.75 24.8957 20.4289 26.612 22.5 26.612Z" fill="white"/>
<path d="M32.5 12.5556H28.5375L26.9875 10.8306C26.7546 10.5691 26.4708 10.3602 26.1544 10.2172C25.838 10.0742 25.4959 10.0002 25.15 10H19.85C19.15 10 18.475 10.3067 18 10.8306L16.4625 12.5556H12.5C11.125 12.5556 10 13.7056 10 15.1111V30.4444C10 31.85 11.125 33 12.5 33H32.5C33.875 33 35 31.85 35 30.4444V15.1111C35 13.7056 33.875 12.5556 32.5 12.5556ZM22.5 29.1667C19.05 29.1667 16.25 26.3044 16.25 22.7778C16.25 19.2511 19.05 16.3889 22.5 16.3889C25.95 16.3889 28.75 19.2511 28.75 22.7778C28.75 26.3044 25.95 29.1667 22.5 29.1667Z" fill="white"/>
</svg>
