<svg width="35" height="36" viewBox="0 0 35 36" fill="none" xmlns="http://www.w3.org/2000/svg">
<path d="M29.75 28.7047V35.2952L27.0988 33.7045L18.7652 28.7047H10.5C8.56975 28.7047 7 27.135 7 25.2047V11.2047C7 9.2745 8.56975 7.70475 10.5 7.70475H31.5C33.4303 7.70475 35 9.2745 35 11.2047V25.2047C35 27.135 33.4303 28.7047 31.5 28.7047H29.75ZM31.5 11.2047H10.5V25.2047H19.7348L26.25 29.1142V25.2047H31.5V11.2047Z" fill="#197BEB"/>
<path d="M3.5 0.704748H24.5C26.4303 0.704748 28 2.2745 28 4.20475H7C5.06975 4.20475 3.5 5.7745 3.5 7.70475V21.7047C1.56975 21.7047 0 20.135 0 18.2047V4.20475C0 2.2745 1.56975 0.704748 3.5 0.704748Z" fill="#197BEB"/>
</svg>
