<svg width="25" height="25" viewBox="0 0 25 25" fill="none" xmlns="http://www.w3.org/2000/svg">
<path d="M4.76558 5.06342C5.0586 4.78176 5.45595 4.62354 5.87027 4.62354C6.28459 4.62354 6.68195 4.78176 6.97496 5.06342L12.5 10.3759L18.025 5.06342C18.3196 4.78974 18.7143 4.63831 19.124 4.64173C19.5337 4.64516 19.9256 4.80316 20.2153 5.08172C20.505 5.36028 20.6693 5.7371 20.6729 6.13103C20.6764 6.52495 20.519 6.90446 20.2343 7.18782L14.7093 12.5003L20.2343 17.8128C20.519 18.0962 20.6764 18.4757 20.6729 18.8696C20.6693 19.2635 20.505 19.6404 20.2153 19.9189C19.9256 20.1975 19.5337 20.3555 19.124 20.3589C18.7143 20.3623 18.3196 20.2109 18.025 19.9372L12.5 14.6247L6.97496 19.9372C6.68027 20.2109 6.28558 20.3623 5.87589 20.3589C5.46621 20.3555 5.07432 20.1975 4.78462 19.9189C4.49492 19.6404 4.33059 19.2635 4.32703 18.8696C4.32347 18.4757 4.48096 18.0962 4.76558 17.8128L10.2906 12.5003L4.76558 7.18782C4.47266 6.90608 4.30811 6.524 4.30811 6.12562C4.30811 5.72723 4.47266 5.34516 4.76558 5.06342Z" fill="#070723" fill-opacity="0.5"/>
</svg>
