<svg width="34" height="32" viewBox="0 0 34 32" fill="none" xmlns="http://www.w3.org/2000/svg">
<path d="M6.29684 6.10022C6.684 5.72528 7.20902 5.51465 7.75646 5.51465C8.30389 5.51465 8.82892 5.72528 9.21607 6.10022L16.5162 13.1722L23.8163 6.10022C24.2057 5.73591 24.7272 5.53432 25.2685 5.53887C25.8098 5.54343 26.3276 5.75377 26.7104 6.12458C27.0932 6.4954 27.3103 6.99703 27.315 7.52142C27.3197 8.04581 27.1116 8.55102 26.7356 8.92822L19.4354 16.0002L26.7356 23.0722C27.1116 23.4494 27.3197 23.9546 27.315 24.479C27.3103 25.0034 27.0932 25.505 26.7104 25.8759C26.3276 26.2467 25.8098 26.457 25.2685 26.4616C24.7272 26.4661 24.2057 26.2645 23.8163 25.9002L16.5162 18.8282L9.21607 25.9002C8.8267 26.2645 8.3052 26.4661 7.76389 26.4616C7.22258 26.457 6.70477 26.2467 6.32199 25.8759C5.93922 25.505 5.72209 25.0034 5.71739 24.479C5.71269 23.9546 5.92078 23.4494 6.29684 23.0722L13.597 16.0002L6.29684 8.92822C5.90981 8.55317 5.69238 8.04455 5.69238 7.51422C5.69238 6.98389 5.90981 6.47528 6.29684 6.10022Z" fill="white"/>
</svg>
