<svg width="15" height="19" viewBox="0 0 15 19" fill="none" xmlns="http://www.w3.org/2000/svg">
<path d="M12.7207 3.67812V1.87812H14.5207V0.078125H1.92073C0.930727 0.078125 0.120728 0.888125 0.120728 1.87812V16.2781C0.120728 17.2681 0.930727 18.0781 1.92073 18.0781H14.5207V16.2781H10.8937C11.4594 15.8635 11.9195 15.3216 12.2369 14.6962C12.5542 14.0708 12.72 13.3795 12.7207 12.6781V8.17812H3.72073V12.6781C3.72073 14.1541 4.44973 15.4591 5.54773 16.2781H1.92073V1.87812H3.72073V3.67812C3.72073 4.17312 4.12573 4.57812 4.62073 4.57812H11.8207C12.3157 4.57812 12.7207 4.17312 12.7207 3.67812ZM5.52073 12.6781V9.97812H10.9207V12.6781C10.9207 14.1631 9.70573 15.3781 8.22073 15.3781C6.73573 15.3781 5.52073 14.1631 5.52073 12.6781Z" fill="#197BEB"/>
</svg>
