<svg width="144" height="144" viewBox="0 0 144 144" fill="none" xmlns="http://www.w3.org/2000/svg">
<rect width="144" height="144" fill="#F1F1F1"/>
<path d="M81.9668 71.8208C81.791 76.7181 77.7179 80.7912 72.8207 80.9669L81.9668 71.8208Z" fill="#070723" fill-opacity="0.5"/>
<path d="M91.5 90.5H63.2874L68.0374 85.75H91.5V62.2874L95.908 57.8794C96.1322 58.4341 96.2483 59.0266 96.25 59.625V85.75C96.25 88.3696 94.1196 90.5 91.5 90.5ZM53.5 54.875H59.6418L66.0709 48.4459C66.2911 48.2249 66.5528 48.0497 66.8409 47.9302C67.1291 47.8108 67.4381 47.7496 67.75 47.75H77.25C77.5619 47.7497 77.8708 47.811 78.159 47.9304C78.4471 48.0498 78.7089 48.225 78.9291 48.4459L85.3582 54.875H85.7668L92.1959 48.4459L95.5541 51.8041L52.8041 94.5541L49.4459 91.1959L50.9326 89.7091C50.2655 89.2857 49.7158 88.701 49.3343 88.0091C48.9529 87.3171 48.7519 86.5402 48.75 85.75V59.625C48.75 57.0054 50.8804 54.875 53.5 54.875ZM67.9424 72.6994L73.6994 66.94C73.3123 66.8308 72.9132 66.75 72.5 66.75C69.9706 66.75 67.75 68.9706 67.75 71.5C67.75 71.9133 67.8284 72.3123 67.9424 72.6994ZM64.3751 76.2643C63.4902 74.8316 63.0146 73.1839 63 71.5C63 66.351 67.351 62 72.5 62C74.2314 62 75.8535 62.5225 77.2666 63.3751L82.2043 58.4375L76.2668 52.5H68.7332L62.3041 58.9291C62.084 59.1501 61.8222 59.3253 61.5341 59.4448C61.2459 59.5642 60.9369 59.6255 60.625 59.625L53.5 59.6226V85.75H54.8918L64.3751 76.2643Z" fill="#070723" fill-opacity="0.5"/>
</svg>
