<svg width="20" height="16" viewBox="0 0 20 16" fill="none" xmlns="http://www.w3.org/2000/svg">
<path d="M5.72753 11.4195C4.19003 10.5462 2.97336 9.41016 2.28586 8.69283C2.09362 8.49481 1.98926 8.25122 1.98926 8.0005C1.98926 7.74977 2.09362 7.50618 2.28586 7.30816C3.53003 6.00883 6.51503 3.3335 10 3.3335C11.5634 3.3335 13.025 3.8715 14.275 4.58283" stroke="#D5D5D5" stroke-width="2" stroke-linecap="round" stroke-linejoin="round"/>
<path d="M8.33325 12.4694C8.87426 12.5982 9.43546 12.6647 9.99992 12.6667C13.4849 12.6667 16.4699 9.99142 17.7141 8.69208C17.9063 8.49389 18.0105 8.25014 18.0104 7.9993C18.0102 7.74846 17.9057 7.50479 17.7133 7.30675C17.276 6.85041 16.8069 6.41416 16.3083 6.00008M11.7749 6.59141C11.5435 6.40319 11.2678 6.25349 10.9637 6.15094C10.6596 6.04839 10.3331 5.99502 10.0031 5.99392C9.67307 5.99281 9.34604 6.04399 9.04088 6.14449C8.73571 6.245 8.45844 6.39285 8.22505 6.57952C7.99167 6.76618 7.80679 6.98797 7.68108 7.23208C7.55537 7.47619 7.49132 7.73779 7.49263 8.00181C7.49393 8.26582 7.56057 8.52701 7.68868 8.77032C7.8168 9.01363 8.00386 9.23423 8.23909 9.41941L11.7749 6.59141ZM3.33325 13.3334L16.6666 2.66675L3.33325 13.3334Z" stroke="#D5D5D5" stroke-width="2" stroke-linecap="round" stroke-linejoin="round"/>
</svg>
