<svg width="140" height="94" viewBox="0 0 140 94" fill="none" xmlns="http://www.w3.org/2000/svg">
<path fill-rule="evenodd" clip-rule="evenodd" d="M16.5998 34.63C16.3166 34.9333 16.1538 35.4002 16.1538 36.0068V57.5833C16.1538 58.1899 16.3166 58.6567 16.6104 58.9495L16.6871 59.0141L28.8203 46.9243V46.6526L16.6766 34.5654L16.5998 34.63Z" fill="url(#paint0_linear_2319_65)"/>
<path fill-rule="evenodd" clip-rule="evenodd" d="M32.8568 50.9701L28.8098 46.9362V46.654L32.8582 42.6201L32.9455 42.6742L37.7337 45.3854C39.1047 46.1555 39.1047 47.4241 37.7337 48.2048L32.9455 50.916C32.9442 50.916 32.8568 50.9701 32.8568 50.9701Z" fill="url(#paint1_linear_2319_65)"/>
<path fill-rule="evenodd" clip-rule="evenodd" d="M32.9441 50.9159L28.8098 46.7949L16.5999 58.9612C17.0458 59.4386 17.7962 59.4927 18.6353 59.0258L32.9441 50.9159Z" fill="url(#paint2_linear_2319_65)"/>
<path fill-rule="evenodd" clip-rule="evenodd" d="M32.9441 42.6753L18.6353 34.5759C17.7976 34.0985 17.0458 34.1631 16.5999 34.6405L28.8084 46.7949L32.9441 42.6753Z" fill="url(#paint3_linear_2319_65)"/>
<path opacity="0.2" fill-rule="evenodd" clip-rule="evenodd" d="M32.8567 50.8291L18.6458 58.8745C17.8517 59.3294 17.1437 59.2978 16.6871 58.885L16.6104 58.9615L16.6871 59.0261C17.1437 59.4376 17.8517 59.4705 18.6458 59.0156L32.9546 50.9161L32.8567 50.8291Z" fill="black"/>
<path opacity="0.12" fill-rule="evenodd" clip-rule="evenodd" d="M37.7323 48.0635L32.8462 50.8288L32.9335 50.9159L37.7217 48.2046C38.4072 47.8143 38.7447 47.3053 38.7447 46.7949C38.701 47.2617 38.353 47.7061 37.7323 48.0635Z" fill="black"/>
<path opacity="0.25" fill-rule="evenodd" clip-rule="evenodd" d="M18.6352 34.7171L37.7322 45.5278C38.3529 45.8746 38.701 46.3296 38.7552 46.7964C38.7552 46.2874 38.4178 45.777 37.7322 45.3867L18.6352 34.576C17.2642 33.7953 16.1538 34.4455 16.1538 36.0068V36.1479C16.1538 34.5866 17.2642 33.947 18.6352 34.7171Z" fill="white"/>
<path fill-rule="evenodd" clip-rule="evenodd" d="M43.4165 46.1103C43.4165 42.6539 46.332 39.8398 49.8007 39.8398C51.7183 39.8398 53.0828 40.5902 54.1124 41.5673L52.9001 42.7753C52.1643 42.0869 51.1664 41.5528 49.7993 41.5528C47.2663 41.5528 45.2865 43.5849 45.2865 46.1089C45.2865 48.6329 47.2663 50.6677 49.798 50.6677C51.4404 50.6677 52.3747 50.011 52.9742 49.4123C53.4652 48.923 53.7868 48.2202 53.9112 47.2562H49.8007V45.5472H55.5867C55.6476 45.8531 55.6793 46.2197 55.6793 46.6166C55.6793 47.8997 55.326 49.4914 54.1891 50.6242C53.0828 51.7714 51.672 52.3833 49.7993 52.3833C46.3293 52.3833 43.4138 49.5718 43.4138 46.1129L43.4165 46.1103ZM60.3563 44.3063C58.1157 44.3063 56.2868 46.0048 56.2868 48.3428C56.2868 50.669 58.1144 52.3793 60.3563 52.3793C62.5982 52.3793 64.4232 50.6664 64.4232 48.3415C64.4232 46.0034 62.5968 44.305 60.3563 44.3063ZM60.3563 50.7916C59.1295 50.7916 58.0694 49.7828 58.0694 48.3441C58.0694 46.8909 59.1282 45.8966 60.3563 45.8966C61.5831 45.8966 62.6418 46.8896 62.6418 48.3441C62.6418 49.7815 61.5844 50.7916 60.3563 50.7916ZM69.2299 44.3063C66.9893 44.3063 65.163 46.0048 65.163 48.3428C65.163 50.669 66.9893 52.3793 69.2299 52.3793C71.4704 52.3793 73.2967 50.6664 73.2967 48.3415C73.2967 46.0034 71.4717 44.305 69.2299 44.3063ZM69.2299 50.7916C68.003 50.7916 66.943 49.7828 66.943 48.3441C66.943 46.8909 68.0017 45.8966 69.2299 45.8966C70.4567 45.8966 71.5167 46.8896 71.5167 48.3441C71.5167 49.7815 70.4567 50.7916 69.2299 50.7916ZM80.1203 44.5516V45.2083H80.0594C79.6611 44.7322 78.8935 44.305 77.9274 44.305C75.9012 44.305 74.0418 46.0799 74.0418 48.36C74.0418 50.6215 75.8999 52.382 77.9274 52.382C78.8935 52.382 79.6611 51.9547 80.0594 51.4655H80.1203V52.0457C80.1203 53.5899 79.2918 54.4167 77.9565 54.4167C76.866 54.4167 76.1911 53.6361 75.9145 52.9807L74.3634 53.6229C74.8081 54.6923 75.9912 56.0084 77.9552 56.0084C80.0409 56.0084 81.8063 54.7833 81.8063 51.8018V44.5502L80.1203 44.5516ZM78.0796 50.7916C76.8528 50.7916 75.8218 49.7657 75.8218 48.36C75.8218 46.9384 76.8515 45.8979 78.0796 45.8979C79.2918 45.8979 80.2434 46.9371 80.2434 48.36C80.2447 49.7657 79.2932 50.7916 78.0796 50.7916ZM83.0358 40.2684H84.8171V52.1367H83.0358V40.2684ZM89.6993 50.7916C88.794 50.7916 88.1482 50.3776 87.7366 49.5692L93.1547 47.334L92.9681 46.8751C92.632 45.9744 91.6023 44.3063 89.4994 44.3063C87.4124 44.3063 85.6774 45.9428 85.6774 48.3441C85.6774 50.6057 87.3965 52.3807 89.6993 52.3807C91.5573 52.3807 92.632 51.2505 93.0766 50.5912L91.695 49.6747C91.2331 50.3485 90.6032 50.7929 89.6993 50.7916ZM89.5603 45.8663C90.2657 45.8663 90.8639 46.2184 91.0637 46.7221L87.4402 48.2215C87.3952 46.6615 88.6538 45.8663 89.5603 45.8663Z" fill="#808285"/>
<path fill-rule="evenodd" clip-rule="evenodd" d="M100.971 40.2686H96.7122V52.1368H98.4895V47.6414H100.972C102.943 47.6414 104.88 46.2198 104.88 43.9543C104.88 41.6927 102.944 40.2699 100.975 40.2699L100.971 40.2686ZM101.017 45.9891H98.4895V41.9196H101.017C102.346 41.9196 103.103 43.018 103.103 43.9543C103.103 44.8748 102.346 45.9891 101.017 45.9891ZM107.637 52.1368V40.2686H105.86V52.1368H107.637ZM115.621 52.1157V47.5662C115.621 45.4589 114.041 44.284 112.002 44.284C110.717 44.284 109.384 44.8497 108.832 46.1012L110.41 46.7565C110.747 46.1012 111.374 45.8862 112.035 45.8862C112.953 45.8862 113.888 46.4361 113.902 47.4146V47.5372C113.581 47.3539 112.892 47.0783 112.048 47.0783C110.347 47.0783 108.616 48.0093 108.616 49.75C108.616 51.339 110.011 52.361 111.574 52.361C112.771 52.361 113.428 51.8269 113.841 51.2019H113.902V52.1184H115.62L115.621 52.1157ZM111.79 50.7891C111.208 50.7891 110.395 50.499 110.395 49.783C110.395 48.8665 111.407 48.5131 112.281 48.5131C113.063 48.5131 113.43 48.6805 113.906 48.91C113.77 49.9755 112.866 50.7759 111.79 50.7891ZM121.872 44.5438L119.834 49.688H119.773L117.658 44.5438H115.743L118.914 51.7359L117.105 55.7356H118.959L123.846 44.5438H121.872Z" fill="#808285"/>
<defs>
<linearGradient id="paint0_linear_2319_65" x1="27.7308" y1="35.7748" x2="8.30483" y2="40.9695" gradientUnits="userSpaceOnUse">
<stop stop-color="#00A0FF"/>
<stop offset="0.007" stop-color="#00A1FF"/>
<stop offset="0.26" stop-color="#00BEFF"/>
<stop offset="0.512" stop-color="#00D2FF"/>
<stop offset="0.76" stop-color="#00DFFF"/>
<stop offset="1" stop-color="#00E3FF"/>
</linearGradient>
<linearGradient id="paint1_linear_2319_65" x1="39.5178" y1="46.7957" x2="15.8207" y2="46.7957" gradientUnits="userSpaceOnUse">
<stop stop-color="#FFE000"/>
<stop offset="0.409" stop-color="#FFBD00"/>
<stop offset="0.775" stop-color="#FFA500"/>
<stop offset="1" stop-color="#FF9C00"/>
</linearGradient>
<linearGradient id="paint2_linear_2319_65" x1="30.696" y1="49.0367" x2="15.1757" y2="75.252" gradientUnits="userSpaceOnUse">
<stop stop-color="#FF3A44"/>
<stop offset="1" stop-color="#C31162"/>
</linearGradient>
<linearGradient id="paint3_linear_2319_65" x1="13.5263" y1="27.4526" x2="20.4504" y2="39.1607" gradientUnits="userSpaceOnUse">
<stop stop-color="#32A071"/>
<stop offset="0.069" stop-color="#2DA771"/>
<stop offset="0.476" stop-color="#15CF74"/>
<stop offset="0.801" stop-color="#06E775"/>
<stop offset="1" stop-color="#00F076"/>
</linearGradient>
</defs>
</svg>
