<svg width="72" height="72" viewBox="0 0 72 72" fill="none" xmlns="http://www.w3.org/2000/svg">
<circle cx="36" cy="36" r="36" fill="#F1F1F1"/>
<path d="M50.5 25H43.5V21.5C43.5 19.575 41.925 18 40 18H33C31.075 18 29.5 19.575 29.5 21.5V25H22.5C20.575 25 19 26.575 19 28.5V49.5C19 51.425 20.575 53 22.5 53H50.5C52.425 53 54 51.425 54 49.5V28.5C54 26.575 52.425 25 50.5 25ZM33 21.5H40V25H33V21.5ZM41.75 40.75H38.25V44.25C38.25 45.2125 37.4625 46 36.5 46C35.5375 46 34.75 45.2125 34.75 44.25V40.75H31.25C30.2875 40.75 29.5 39.9625 29.5 39C29.5 38.0375 30.2875 37.25 31.25 37.25H34.75V33.75C34.75 32.7875 35.5375 32 36.5 32C37.4625 32 38.25 32.7875 38.25 33.75V37.25H41.75C42.7125 37.25 43.5 38.0375 43.5 39C43.5 39.9625 42.7125 40.75 41.75 40.75Z" fill="#070723" fill-opacity="0.5"/>
</svg>
