<svg width="6" height="8" viewBox="0 0 6 8" fill="none" xmlns="http://www.w3.org/2000/svg">
<path d="M2.625 7.37583C2.15135 6.97181 1.71232 6.52889 1.3125 6.0517C0.7125 5.33508 3.29585e-07 4.26783 3.29585e-07 3.25083C-0.000259882 2.73144 0.153566 2.22365 0.44201 1.79171C0.730455 1.35978 1.14055 1.02312 1.6204 0.824352C2.10025 0.625579 2.62828 0.573624 3.13767 0.675062C3.64706 0.7765 4.1149 1.02677 4.482 1.3942C4.72641 1.63752 4.92013 1.9269 5.05196 2.24559C5.18378 2.56428 5.2511 2.90595 5.25 3.25083C5.25 4.26783 4.5375 5.33508 3.9375 6.0517C3.53768 6.52889 3.09865 6.97181 2.625 7.37583ZM2.625 2.12583C2.32663 2.12583 2.04048 2.24435 1.8295 2.45533C1.61853 2.66631 1.5 2.95246 1.5 3.25083C1.5 3.5492 1.61853 3.83535 1.8295 4.04632C2.04048 4.2573 2.32663 4.37583 2.625 4.37583C2.92337 4.37583 3.20952 4.2573 3.4205 4.04632C3.63147 3.83535 3.75 3.5492 3.75 3.25083C3.75 2.95246 3.63147 2.66631 3.4205 2.45533C3.20952 2.24435 2.92337 2.12583 2.625 2.12583Z" fill="#070723" fill-opacity="0.5"/>
</svg>
