<svg width="72" height="72" viewBox="0 0 72 72" fill="none" xmlns="http://www.w3.org/2000/svg">
<circle cx="36" cy="36" r="36" fill="#F1F1F1"/>
<path d="M25.333 28.9789L26.2911 28.0026C27.3596 26.9342 29.1283 26.9342 30.2337 28.0763L30.2705 28.1316C31.1733 29.0526 32.3708 29.4947 33.6788 29.6237C35.4659 29.7895 37.1977 30.7474 38.34 32.4789C39.5928 34.4684 39.5743 37.1211 38.2663 39.0921C37.7729 39.8722 37.1094 40.5306 36.3256 41.018C35.5417 41.5054 34.6577 41.8093 33.7397 41.9067C32.8218 42.0042 31.8937 41.8927 31.0249 41.5808C30.1561 41.2688 29.3692 40.7644 28.723 40.1053C27.6912 39.0921 27.1017 37.7842 26.9543 36.4211C26.8069 35.0763 26.2726 33.8053 25.333 32.8658C24.2645 31.8158 24.2645 30.0474 25.333 28.9789ZM33.0709 43.7895C30.9153 43.7895 28.9072 42.9605 27.4149 41.4316C26.1253 40.1053 25.3146 38.4474 25.112 36.6421C25.0567 36.0895 24.8909 35.3711 24.4487 34.7079C23.3433 36.2368 22.6801 38.0789 22.6801 40.1053C22.6801 43.1263 24.1539 45.7974 26.42 47.4737H50.3152V45.6316C50.3152 39 45.912 33.3816 39.8875 31.5395C41.5272 34.1184 41.4904 37.5632 39.8138 40.1053C38.34 42.4079 35.7975 43.7895 33.0709 43.7895ZM42.5405 28.2421H44.8803C46.4831 28.2421 47.8833 29.3658 47.8833 31.3737V32.7368H50.1862V30.8947C50.1862 28.1316 47.7359 26.0316 44.8803 26.0316H42.5405C41.0114 26.0316 39.7033 24.5211 39.7033 22.9737C39.7033 21.4263 41.0114 20.2842 42.5405 20.2842V18C39.7033 18 37.4188 20.2842 37.4188 23.1211C37.4188 25.9579 39.7033 28.2421 42.5405 28.2421ZM23.6012 28.2237C23.7118 28.0395 23.8592 27.8553 24.025 27.6711L24.983 26.7132C25.1488 26.5474 25.333 26.4184 25.5173 26.2895L22.9196 23.6553C23.1775 23.1579 23.0854 22.5132 22.6801 22.0895C22.4162 21.8327 22.0626 21.689 21.6944 21.689C21.3262 21.689 20.9726 21.8327 20.7088 22.0895C20.4508 22.3474 20.3219 22.6605 20.3035 22.9921C19.9718 23.0105 19.6586 23.1395 19.4007 23.3974C18.8664 23.9316 18.8664 24.8158 19.4007 25.3684C19.8244 25.7737 20.4508 25.8658 20.9667 25.6079L23.6012 28.2237ZM49.1914 22.4026C50.1309 21.4632 50.7205 20.1921 50.7205 18.7737H48.4176C48.4176 20.3026 47.1279 21.5921 45.5988 21.5921V23.8763C49.0255 23.8763 51.7154 26.6763 51.7154 30.1026V34.5789H53.9999V30.1026C54.0091 28.4958 53.5621 26.9193 52.711 25.5563C51.8598 24.1933 50.6393 23.0997 49.1914 22.4026ZM24.5224 53H50.3152C52.3602 53 53.9999 51.3605 53.9999 49.3158H20.8377C20.8377 50.2929 21.2259 51.23 21.917 51.9209C22.608 52.6118 23.5452 53 24.5224 53Z" fill="#070723" fill-opacity="0.5"/>
</svg>
