<svg width="21" height="18" viewBox="0 0 21 18" fill="none" xmlns="http://www.w3.org/2000/svg">
<path d="M19.6114 4.275C19.5086 3.7575 19.04 3.375 18.4914 3.375H2.08C1.53143 3.375 1.06286 3.7575 0.96 4.275L0 9V10.125C0 10.7437 0.514286 11.25 1.14286 11.25V16.875C1.14286 17.4937 1.65714 18 2.28571 18H11.4286C12.0571 18 12.5714 17.4937 12.5714 16.875V11.25H17.1429V16.875C17.1429 17.4937 17.6571 18 18.2857 18C18.9143 18 19.4286 17.4937 19.4286 16.875V11.25C20.0571 11.25 20.5714 10.7437 20.5714 10.125V9L19.6114 4.275ZM10.2857 15.75H3.42857V11.25H10.2857V15.75ZM2.28571 2.25H18.2857C18.9143 2.25 19.4286 1.74375 19.4286 1.125C19.4286 0.50625 18.9143 0 18.2857 0H2.28571C1.65714 0 1.14286 0.50625 1.14286 1.125C1.14286 1.74375 1.65714 2.25 2.28571 2.25Z" fill="#197BEB"/>
</svg>
