<svg width="112" height="80" viewBox="0 0 112 80" fill="none" xmlns="http://www.w3.org/2000/svg">
<g filter="url(#filter0_d_1560_5172)">
<path fill-rule="evenodd" clip-rule="evenodd" d="M50 40C50 45.5228 45.5228 50 40 50C34.4772 50 30 45.5228 30 40C30 34.4772 34.4772 30 40 30C45.5228 30 50 34.4772 50 40ZM70 40C70 56.5685 56.5685 70 40 70C23.4315 70 10 56.5685 10 40C10 23.4315 23.4315 10 40 10C56.5685 10 70 23.4315 70 40ZM53.456 39.504V46H55.952V39.504H58.096V37.584H55.888V37.216C55.888 36.8 55.984 36.4907 56.176 36.288C56.3787 36.0747 56.6613 35.968 57.024 35.968C57.216 35.968 57.3973 35.9947 57.568 36.048C57.7387 36.1013 57.8933 36.176 58.032 36.272L58.688 34.464C58.4533 34.304 58.1653 34.1867 57.824 34.112C57.4933 34.0373 57.1467 34 56.784 34C55.7173 34 54.896 34.2933 54.32 34.88C53.744 35.456 53.456 36.2293 53.456 37.2V37.584H52.128V39.504H53.456ZM59.9635 39.504V46H62.4595V39.504H64.6035V37.584H62.3955V37.216C62.3955 36.8 62.4915 36.4907 62.6835 36.288C62.8862 36.0747 63.1688 35.968 63.5315 35.968C63.7235 35.968 63.9048 35.9947 64.0755 36.048C64.2462 36.1013 64.4008 36.176 64.5395 36.272L65.1955 34.464C64.9608 34.304 64.6728 34.1867 64.3315 34.112C64.0008 34.0373 63.6542 34 63.2915 34C62.2248 34 61.4035 34.2933 60.8275 34.88C60.2515 35.456 59.9635 36.2293 59.9635 37.2V37.584H58.6355V39.504H59.9635ZM66.0115 37.392V46H68.5075V37.392H66.0115ZM66.1395 35.792C66.4275 36.0587 66.8008 36.192 67.2595 36.192C67.7288 36.192 68.1022 36.0587 68.3795 35.792C68.6675 35.5147 68.8115 35.168 68.8115 34.752C68.8115 34.3573 68.6675 34.0373 68.3795 33.792C68.0915 33.536 67.7182 33.408 67.2595 33.408C66.8008 33.408 66.4275 33.5413 66.1395 33.808C65.8515 34.0747 65.7075 34.4053 65.7075 34.8C65.7075 35.1947 65.8515 35.5253 66.1395 35.792ZM72.8157 45.568C73.5411 45.9413 74.3677 46.128 75.2957 46.128C76.2024 46.128 76.9917 45.9413 77.6637 45.568C78.3357 45.184 78.8317 44.6453 79.1517 43.952L77.2157 42.896C76.9917 43.312 76.7091 43.616 76.3677 43.808C76.0371 43.9893 75.6744 44.08 75.2797 44.08C74.8531 44.08 74.4691 43.984 74.1277 43.792C73.7864 43.6 73.5144 43.328 73.3117 42.976C73.1197 42.624 73.0237 42.1973 73.0237 41.696C73.0237 41.1947 73.1197 40.768 73.3117 40.416C73.5144 40.064 73.7864 39.792 74.1277 39.6C74.4691 39.408 74.8531 39.312 75.2797 39.312C75.6744 39.312 76.0371 39.408 76.3677 39.6C76.7091 39.792 76.9917 40.0907 77.2157 40.496L79.1517 39.456C78.8317 38.752 78.3357 38.2133 77.6637 37.84C76.9917 37.456 76.2024 37.264 75.2957 37.264C74.3677 37.264 73.5411 37.456 72.8157 37.84C72.0904 38.2133 71.5197 38.736 71.1037 39.408C70.6984 40.0693 70.4957 40.832 70.4957 41.696C70.4957 42.5493 70.6984 43.312 71.1037 43.984C71.5197 44.656 72.0904 45.184 72.8157 45.568ZM80.99 35.792C81.278 36.0587 81.6513 36.192 82.11 36.192C82.5793 36.192 82.9527 36.0587 83.23 35.792C83.518 35.5147 83.662 35.168 83.662 34.752C83.662 34.3573 83.518 34.0373 83.23 33.792C82.942 33.536 82.5687 33.408 82.11 33.408C81.6513 33.408 81.278 33.5413 80.99 33.808C80.702 34.0747 80.558 34.4053 80.558 34.8C80.558 35.1947 80.702 35.5253 80.99 35.792ZM87.1465 45.36C87.7118 45.872 88.5012 46.128 89.5145 46.128C89.8985 46.128 90.2665 46.0853 90.6185 46C90.9812 45.904 91.2905 45.7653 91.5465 45.584L90.8745 43.824C90.5972 44.0373 90.2612 44.144 89.8665 44.144C89.5358 44.144 89.2745 44.048 89.0825 43.856C88.8905 43.6533 88.7945 43.3707 88.7945 43.008V39.504H90.9385V37.584H88.7945V35.488H86.2985V37.584H84.9705V39.504H86.2985V43.04C86.2985 44.064 86.5812 44.8373 87.1465 45.36ZM80.862 37.392V46H83.358V37.392H80.862ZM92.8714 49.024C93.3087 49.1627 93.7514 49.232 94.1994 49.232C94.722 49.232 95.1967 49.152 95.6234 48.992C96.0607 48.832 96.4554 48.5547 96.8074 48.16C97.17 47.7653 97.49 47.2213 97.7674 46.528L101.655 37.392H99.2554L96.8237 43.238L94.4074 37.392H91.8314L95.558 46.0719L95.5274 46.144C95.3567 46.528 95.1647 46.8 94.9514 46.96C94.7487 47.1307 94.4714 47.216 94.1194 47.216C93.874 47.216 93.6234 47.168 93.3674 47.072C93.122 46.976 92.9034 46.8427 92.7114 46.672L91.7994 48.448C92.0767 48.6933 92.434 48.8853 92.8714 49.024Z" fill="#197BEB"/>
</g>
<defs>
<filter id="filter0_d_1560_5172" x="0" y="0" width="111.655" height="80" filterUnits="userSpaceOnUse" color-interpolation-filters="sRGB">
<feFlood flood-opacity="0" result="BackgroundImageFix"/>
<feColorMatrix in="SourceAlpha" type="matrix" values="0 0 0 0 0 0 0 0 0 0 0 0 0 0 0 0 0 0 127 0" result="hardAlpha"/>
<feOffset/>
<feGaussianBlur stdDeviation="5"/>
<feComposite in2="hardAlpha" operator="out"/>
<feColorMatrix type="matrix" values="0 0 0 0 0 0 0 0 0 0 0 0 0 0 0 0 0 0 0.25 0"/>
<feBlend mode="normal" in2="BackgroundImageFix" result="effect1_dropShadow_1560_5172"/>
<feBlend mode="normal" in="SourceGraphic" in2="effect1_dropShadow_1560_5172" result="shape"/>
</filter>
</defs>
</svg>
