<svg width="102" height="32" viewBox="0 0 102 32" fill="none" xmlns="http://www.w3.org/2000/svg">
<g filter="url(#filter0_i_947_4274)">
<path d="M19.5938 13.0469V14.2188C19.5938 15.9375 19.3646 17.4844 18.9062 18.8594C18.4479 20.224 17.7969 21.3854 16.9531 22.3438C16.1094 23.3021 15.1042 24.0365 13.9375 24.5469C12.7708 25.0573 11.474 25.3125 10.0469 25.3125C8.64062 25.3125 7.34896 25.0573 6.17188 24.5469C5.00521 24.0365 3.99479 23.3021 3.14062 22.3438C2.28646 21.3854 1.625 20.224 1.15625 18.8594C0.6875 17.4844 0.453125 15.9375 0.453125 14.2188V13.0469C0.453125 11.3177 0.6875 9.77083 1.15625 8.40625C1.625 7.04167 2.28125 5.88021 3.125 4.92188C3.96875 3.95312 4.97396 3.21354 6.14062 2.70312C7.31771 2.19271 8.60938 1.9375 10.0156 1.9375C11.4427 1.9375 12.7396 2.19271 13.9062 2.70312C15.0729 3.21354 16.0781 3.95312 16.9219 4.92188C17.776 5.88021 18.4323 7.04167 18.8906 8.40625C19.3594 9.77083 19.5938 11.3177 19.5938 13.0469ZM15.25 14.2188V13.0156C15.25 11.776 15.1354 10.6875 14.9062 9.75C14.6771 8.80208 14.3385 8.00521 13.8906 7.35938C13.4427 6.71354 12.8906 6.22917 12.2344 5.90625C11.5781 5.57292 10.8385 5.40625 10.0156 5.40625C9.18229 5.40625 8.44271 5.57292 7.79688 5.90625C7.16146 6.22917 6.61979 6.71354 6.17188 7.35938C5.72396 8.00521 5.38021 8.80208 5.14062 9.75C4.91146 10.6875 4.79688 11.776 4.79688 13.0156V14.2188C4.79688 15.4479 4.91146 16.5365 5.14062 17.4844C5.38021 18.4323 5.72396 19.2344 6.17188 19.8906C6.63021 20.5365 7.18229 21.026 7.82812 21.3594C8.47396 21.6927 9.21354 21.8594 10.0469 21.8594C10.8802 21.8594 11.6198 21.6927 12.2656 21.3594C12.9115 21.026 13.4531 20.5365 13.8906 19.8906C14.3385 19.2344 14.6771 18.4323 14.9062 17.4844C15.1354 16.5365 15.25 15.4479 15.25 14.2188ZM28.3281 25H24.1719V6.53125C24.1719 5.26042 24.4167 4.19271 24.9062 3.32812C25.3958 2.45312 26.0938 1.79167 27 1.34375C27.9062 0.895833 28.974 0.671875 30.2031 0.671875C30.6094 0.671875 30.9948 0.697917 31.3594 0.75C31.7344 0.802083 32.1042 0.875 32.4688 0.96875L32.3906 4.10938C32.1927 4.05729 31.974 4.02083 31.7344 4C31.5052 3.97917 31.25 3.96875 30.9688 3.96875C30.4062 3.96875 29.9271 4.06771 29.5312 4.26562C29.1354 4.46354 28.8333 4.75521 28.625 5.14062C28.4271 5.51562 28.3281 5.97917 28.3281 6.53125V25ZM31.8281 8.09375V11.0625H21.625V8.09375H31.8281ZM38.2344 25H34.0938V7.15625C34.0938 5.76042 34.375 4.58333 34.9375 3.625C35.5 2.65625 36.3125 1.92188 37.375 1.42188C38.4375 0.921875 39.7135 0.671875 41.2031 0.671875C42.0677 0.671875 42.901 0.760417 43.7031 0.9375C44.5052 1.10417 45.3385 1.32292 46.2031 1.59375L45.5938 4.9375C45.0417 4.76042 44.4375 4.59375 43.7812 4.4375C43.125 4.28125 42.3542 4.20312 41.4688 4.20312C40.3854 4.20312 39.5729 4.45312 39.0312 4.95312C38.5 5.45312 38.2344 6.1875 38.2344 7.15625V25ZM41.6094 8.09375V11.0625H31.5312V8.09375H41.6094ZM48.1406 8.09375V25H44V8.09375H48.1406ZM59.0469 22.0625C59.6302 22.0625 60.151 21.9479 60.6094 21.7188C61.0677 21.4896 61.4323 21.1667 61.7031 20.75C61.9844 20.3333 62.1354 19.849 62.1562 19.2969H66.0469C66.026 20.4427 65.7031 21.4688 65.0781 22.375C64.4531 23.2812 63.6198 24 62.5781 24.5312C61.5469 25.0521 60.3906 25.3125 59.1094 25.3125C57.8073 25.3125 56.6719 25.0938 55.7031 24.6562C54.7344 24.2188 53.9271 23.6094 53.2812 22.8281C52.6458 22.0469 52.1667 21.1406 51.8438 20.1094C51.5312 19.0781 51.375 17.974 51.375 16.7969V16.2969C51.375 15.1198 51.5312 14.0156 51.8438 12.9844C52.1667 11.9531 52.6458 11.0469 53.2812 10.2656C53.9271 9.48438 54.7344 8.875 55.7031 8.4375C56.6719 8 57.8021 7.78125 59.0938 7.78125C60.4583 7.78125 61.6562 8.04688 62.6875 8.57812C63.7292 9.10938 64.5417 9.85938 65.125 10.8281C65.7188 11.7969 66.026 12.9375 66.0469 14.25H62.1562C62.1354 13.6458 62 13.1042 61.75 12.625C61.5 12.1458 61.1458 11.7604 60.6875 11.4688C60.2292 11.1771 59.6719 11.0312 59.0156 11.0312C58.3177 11.0312 57.7344 11.1771 57.2656 11.4688C56.8073 11.7604 56.4479 12.1615 56.1875 12.6719C55.9375 13.1719 55.7604 13.7344 55.6562 14.3594C55.5625 14.974 55.5156 15.6198 55.5156 16.2969V16.7969C55.5156 17.4844 55.5625 18.1406 55.6562 18.7656C55.7604 19.3906 55.9375 19.9531 56.1875 20.4531C56.4479 20.9427 56.8073 21.3333 57.2656 21.625C57.7344 21.9167 58.3281 22.0625 59.0469 22.0625ZM73.1719 8.09375V25H69.0312V8.09375H73.1719ZM68.75 3.67188C68.75 3.05729 68.9583 2.54688 69.375 2.14062C69.8021 1.73438 70.375 1.53125 71.0938 1.53125C71.8125 1.53125 72.3802 1.73438 72.7969 2.14062C73.224 2.54688 73.4375 3.05729 73.4375 3.67188C73.4375 4.27604 73.224 4.78125 72.7969 5.1875C72.3802 5.59375 71.8125 5.79688 71.0938 5.79688C70.375 5.79688 69.8021 5.59375 69.375 5.1875C68.9583 4.78125 68.75 4.27604 68.75 3.67188ZM85.1094 8.09375V11.0625H75.4219V8.09375H85.1094ZM78.0156 3.9375H82.1562V20.125C82.1562 20.625 82.224 21.0104 82.3594 21.2812C82.4948 21.5521 82.6979 21.7344 82.9688 21.8281C83.2396 21.9219 83.5625 21.9688 83.9375 21.9688C84.2083 21.9688 84.4583 21.9531 84.6875 21.9219C84.9167 21.8906 85.1094 21.8594 85.2656 21.8281L85.2812 24.9219C84.9375 25.0365 84.5469 25.1302 84.1094 25.2031C83.6823 25.276 83.1979 25.3125 82.6562 25.3125C81.7292 25.3125 80.9167 25.1562 80.2188 24.8438C79.5208 24.5208 78.9792 24.0052 78.5938 23.2969C78.2083 22.5781 78.0156 21.6302 78.0156 20.4531V3.9375ZM92.8125 23.125L97.3438 8.09375H101.766L94.9844 27.5625C94.8281 27.9792 94.625 28.4323 94.375 28.9219C94.1354 29.4115 93.8125 29.875 93.4062 30.3125C93 30.7604 92.4896 31.125 91.875 31.4062C91.2708 31.6875 90.5365 31.8281 89.6719 31.8281C89.2969 31.8281 88.9635 31.8021 88.6719 31.75C88.3802 31.6979 88.0729 31.6302 87.75 31.5469V28.4531C87.8542 28.4635 87.974 28.4688 88.1094 28.4688C88.2552 28.4792 88.3802 28.4844 88.4844 28.4844C89.0885 28.4844 89.5885 28.4115 89.9844 28.2656C90.3802 28.1302 90.6979 27.9062 90.9375 27.5938C91.1875 27.2917 91.3958 26.8958 91.5625 26.4062L92.8125 23.125ZM90.5781 8.09375L94.4062 20.5469L95.0781 24.9062L92.2344 25.4219L86.125 8.09375H90.5781Z" fill="url(#paint0_linear_947_4274)"/>
</g>
<defs>
<filter id="filter0_i_947_4274" x="0.453125" y="0.671875" width="101.312" height="31.1562" filterUnits="userSpaceOnUse" color-interpolation-filters="sRGB">
<feFlood flood-opacity="0" result="BackgroundImageFix"/>
<feBlend mode="normal" in="SourceGraphic" in2="BackgroundImageFix" result="shape"/>
<feColorMatrix in="SourceAlpha" type="matrix" values="0 0 0 0 0 0 0 0 0 0 0 0 0 0 0 0 0 0 127 0" result="hardAlpha"/>
<feOffset/>
<feGaussianBlur stdDeviation="2.5"/>
<feComposite in2="hardAlpha" operator="arithmetic" k2="-1" k3="1"/>
<feColorMatrix type="matrix" values="0 0 0 0 0 0 0 0 0 0 0 0 0 0 0 0 0 0 0.25 0"/>
<feBlend mode="normal" in2="shape" result="effect1_innerShadow_947_4274"/>
</filter>
<linearGradient id="paint0_linear_947_4274" x1="171.327" y1="-0.999997" x2="-1.04301" y2="18.6221" gradientUnits="userSpaceOnUse">
<stop stop-color="white" stop-opacity="0.5"/>
<stop offset="0.663263" stop-color="#197BEB"/>
</linearGradient>
</defs>
</svg>
