<svg width="20" height="21" viewBox="0 0 20 21" fill="none" xmlns="http://www.w3.org/2000/svg">
<path fill-rule="evenodd" clip-rule="evenodd" d="M12.5 4.875C12.5 4.70924 12.4342 4.55027 12.3169 4.43306C12.1997 4.31585 12.0408 4.25 11.875 4.25H1.875C1.70924 4.25 1.55027 4.31585 1.43306 4.43306C1.31585 4.55027 1.25 4.70924 1.25 4.875V16.125C1.25 16.2908 1.31585 16.4497 1.43306 16.5669C1.55027 16.6842 1.70924 16.75 1.875 16.75H11.875C12.0408 16.75 12.1997 16.6842 12.3169 16.5669C12.4342 16.4497 12.5 16.2908 12.5 16.125V13.625C12.5 13.4592 12.5658 13.3003 12.6831 13.1831C12.8003 13.0658 12.9592 13 13.125 13C13.2908 13 13.4497 13.0658 13.5669 13.1831C13.6842 13.3003 13.75 13.4592 13.75 13.625V16.125C13.75 16.6223 13.5525 17.0992 13.2008 17.4508C12.8492 17.8025 12.3723 18 11.875 18H1.875C1.37772 18 0.900805 17.8025 0.549175 17.4508C0.197544 17.0992 0 16.6223 0 16.125L0 4.875C0 4.37772 0.197544 3.90081 0.549175 3.54917C0.900805 3.19754 1.37772 3 1.875 3H11.875C12.3723 3 12.8492 3.19754 13.2008 3.54917C13.5525 3.90081 13.75 4.37772 13.75 4.875V7.375C13.75 7.54076 13.6842 7.69973 13.5669 7.81694C13.4497 7.93415 13.2908 8 13.125 8C12.9592 8 12.8003 7.93415 12.6831 7.81694C12.5658 7.69973 12.5 7.54076 12.5 7.375V4.875Z" fill="#070723" fill-opacity="0.5"/>
<path fill-rule="evenodd" clip-rule="evenodd" d="M5.18264 10.9423C5.12444 10.8843 5.07826 10.8153 5.04675 10.7394C5.01524 10.6634 4.99902 10.582 4.99902 10.4998C4.99902 10.4176 5.01524 10.3362 5.04675 10.2603C5.07826 10.1843 5.12444 10.1154 5.18264 10.0573L8.93264 6.30731C9.05 6.18995 9.20917 6.12402 9.37514 6.12402C9.54111 6.12402 9.70028 6.18995 9.81764 6.30731C9.935 6.42467 10.0009 6.58384 10.0009 6.74981C10.0009 6.91578 9.935 7.07496 9.81764 7.19231L7.13389 9.87481H18.1251C18.2909 9.87481 18.4499 9.94066 18.5671 10.0579C18.6843 10.1751 18.7501 10.3341 18.7501 10.4998C18.7501 10.6656 18.6843 10.8245 18.5671 10.9418C18.4499 11.059 18.2909 11.1248 18.1251 11.1248H7.13389L9.81764 13.8073C9.87575 13.8654 9.92185 13.9344 9.9533 14.0103C9.98474 14.0863 10.0009 14.1676 10.0009 14.2498C10.0009 14.332 9.98474 14.4134 9.9533 14.4893C9.92185 14.5652 9.87575 14.6342 9.81764 14.6923C9.75953 14.7504 9.69054 14.7965 9.61462 14.828C9.5387 14.8594 9.45732 14.8756 9.37514 14.8756C9.29296 14.8756 9.21159 14.8594 9.13566 14.828C9.05974 14.7965 8.99075 14.7504 8.93264 14.6923L5.18264 10.9423Z" fill="#070723" fill-opacity="0.5"/>
</svg>
