<svg width="72" height="72" viewBox="0 0 72 72" fill="none" xmlns="http://www.w3.org/2000/svg">
<circle cx="36" cy="36" r="36" fill="#F1F1F1"/>
<path d="M27.75 25.6562C27.75 21.4275 31.6641 18 36.5 18C41.3359 18 45.25 21.4275 45.25 25.6562V28.9375H50.25C52.3203 28.9375 54 30.4072 54 32.2188V46.4375C54 50.0605 50.6406 53 46.5 53H26.5C22.3578 53 19 50.0605 19 46.4375V32.2188C19 30.4072 20.6789 28.9375 22.75 28.9375H27.75V25.6562ZM31.5 28.9375H41.5V25.6562C41.5 23.2397 39.2578 21.2812 36.5 21.2812C33.7422 21.2812 31.5 23.2397 31.5 25.6562V28.9375ZM29.625 35.5C30.6641 35.5 31.5 34.7686 31.5 33.8594C31.5 32.9502 30.6641 32.2188 29.625 32.2188C28.5859 32.2188 27.75 32.9502 27.75 33.8594C27.75 34.7686 28.5859 35.5 29.625 35.5ZM43.375 32.2188C42.3359 32.2188 41.5 32.9502 41.5 33.8594C41.5 34.7686 42.3359 35.5 43.375 35.5C44.4141 35.5 45.25 34.7686 45.25 33.8594C45.25 32.9502 44.4141 32.2188 43.375 32.2188Z" fill="#070723" fill-opacity="0.5"/>
</svg>
