<svg width="20" height="19" viewBox="0 0 20 19" fill="none" xmlns="http://www.w3.org/2000/svg">
<path d="M5.35984 10.2067L8.18984 7.37666L1.16984 0.366657C0.420687 1.11797 0 2.13567 0 3.19666C0 4.25764 0.420687 5.27534 1.16984 6.02666L5.35984 10.2067ZM12.1398 8.39666C13.6698 9.10666 15.8198 8.60666 17.4098 7.01666C19.3198 5.10666 19.6898 2.36666 18.2198 0.896657C16.7598 -0.563343 14.0198 -0.203343 12.0998 1.70666C10.5098 3.29666 10.0098 5.44666 10.7198 6.97666L0.959838 16.7367L2.36984 18.1467L9.25984 11.2767L16.1398 18.1567L17.5498 16.7467L10.6698 9.86666L12.1398 8.39666Z" fill="#197BEB"/>
</svg>
