<svg width="24" height="24" viewBox="0 0 24 24" fill="none" xmlns="http://www.w3.org/2000/svg">
<path d="M23.7229 0.29122C23.5878 0.156899 23.4171 0.0639015 23.2308 0.0231597C23.0446 -0.017582 22.8506 -0.00437387 22.6717 0.0612313L0.646102 8.06082C0.45615 8.13278 0.292612 8.26076 0.177209 8.42775C0.0618062 8.59475 0 8.79286 0 8.99577C0 9.19868 0.0618062 9.39679 0.177209 9.56379C0.292612 9.73078 0.45615 9.85876 0.646102 9.93072L10.2573 13.7705L14.1017 23.37C14.1739 23.5514 14.2978 23.7077 14.4579 23.8197C14.618 23.9316 14.8074 23.9943 15.0028 24C15.2051 23.9959 15.4014 23.9306 15.5658 23.8128C15.7302 23.6949 15.8551 23.5301 15.9238 23.34L23.9331 1.34117C24.0013 1.16425 24.0178 0.971615 23.9806 0.785718C23.9433 0.59982 23.854 0.428323 23.7229 0.29122ZM15.0028 20.2002L12.2095 13.2006L17.0051 8.4108L15.5934 7.00087L10.7578 11.8306L3.78975 9.00077L21.3401 2.6711L15.0028 20.2002Z" fill="white"/>
</svg>
