<svg width="16" height="15" viewBox="0 0 16 15" fill="none" xmlns="http://www.w3.org/2000/svg">
<path d="M7.049 0.927078C7.349 0.00607812 8.65201 0.00607812 8.951 0.927078L10.021 4.21908C10.0864 4.41957 10.2135 4.59426 10.3841 4.71818C10.5547 4.84211 10.7601 4.90892 10.971 4.90908H14.433C15.402 4.90908 15.804 6.14908 15.021 6.71908L12.221 8.75308C12.05 8.87711 11.9227 9.05209 11.8573 9.25293C11.7919 9.45377 11.7918 9.67017 11.857 9.87108L12.927 13.1631C13.227 14.0841 12.172 14.8511 11.387 14.2811L8.587 12.2471C8.41621 12.1231 8.21056 12.0563 7.99951 12.0563C7.78845 12.0563 7.5828 12.1231 7.412 12.2471L4.612 14.2811C3.828 14.8511 2.774 14.0841 3.073 13.1631L4.143 9.87108C4.20818 9.67017 4.20806 9.45377 4.14267 9.25293C4.07728 9.05209 3.94997 8.87711 3.779 8.75308L0.980005 6.72008C0.197005 6.15008 0.600005 4.91008 1.568 4.91008H5.029C5.24005 4.91013 5.44571 4.84342 5.61653 4.71948C5.78735 4.59554 5.91458 4.42073 5.98 4.22008L7.05 0.928078L7.049 0.927078Z" fill="#F3C319"/>
</svg>
