<svg width="106" height="100" viewBox="0 0 106 100" fill="none" xmlns="http://www.w3.org/2000/svg">
<path d="M46.3389 4.83525C48.4389 -1.61175 57.5599 -1.61175 59.6529 4.83525L67.1429 27.8792C67.6005 29.2827 68.4901 30.5055 69.6844 31.373C70.8788 32.2405 72.3168 32.7082 73.7929 32.7093H98.0269C104.81 32.7093 107.624 41.3892 102.143 45.3792L82.5429 59.6173C81.3461 60.4855 80.455 61.7103 79.9972 63.1162C79.5395 64.5221 79.5387 66.0369 79.9949 67.4433L87.4849 90.4873C89.5849 96.9342 82.1999 102.303 76.7049 98.3132L57.1049 84.0752C55.9094 83.2073 54.4698 82.7398 52.9924 82.7398C51.515 82.7398 50.0755 83.2073 48.8799 84.0752L29.2799 98.3132C23.7919 102.303 16.4139 96.9342 18.5069 90.4873L25.9969 67.4433C26.4531 66.0369 26.4523 64.5221 25.9946 63.1162C25.5368 61.7103 24.6457 60.4855 23.4489 59.6173L3.85591 45.3863C-1.62509 41.3963 1.19591 32.7162 7.97191 32.7162H32.1989C33.6762 32.7166 35.1158 32.2496 36.3116 31.382C37.5073 30.5145 38.3979 29.2908 38.8559 27.8862L46.3459 4.84225L46.3389 4.83525Z" fill="#F3C319"/>
</svg>
