<svg width="160" height="160" viewBox="0 0 160 160" fill="none" xmlns="http://www.w3.org/2000/svg">
<circle cx="80" cy="80" r="65" fill="#4CAF50" fill-opacity="0.5"/>
<circle cx="80" cy="80" r="80" fill="#4CAF50" fill-opacity="0.5"/>
<rect x="30" y="30" width="100" height="100" rx="50" fill="white"/>
<path d="M80 30C52.3857 30 30 52.3857 30 80C30 107.614 52.3857 130 80 130C107.614 130 130 107.614 130 80C130 52.3857 107.614 30 80 30ZM96.2595 58.6135C99.1282 55.7448 103.779 55.7448 106.648 58.6135C109.517 61.4821 109.517 66.1328 106.649 69.0016L79.3958 96.2598L74.2322 101.42L71.6504 104.001C70.2244 105.426 67.8971 105.409 66.4715 103.984L63.8745 101.387L58.6804 96.1927L50.4733 87.9817C47.6242 85.1314 47.6248 80.5113 50.4745 77.6616C53.325 74.8111 57.9467 74.8115 60.7967 77.6626L63.7402 80.6072L66.3709 83.2394L66.9738 83.8426C68.0936 84.9631 69.9097 84.9633 71.0298 83.8432L73.058 81.815L77.1146 77.7584L85.2277 69.6453L96.2595 58.6135Z" fill="#4CAF50"/>
</svg>
