<svg width="72" height="72" viewBox="0 0 72 72" fill="none" xmlns="http://www.w3.org/2000/svg">
<circle cx="36" cy="36" r="36" fill="#F1F1F1"/>
<path d="M49.75 53.3339C52.4942 53.3339 54.7188 50.9647 54.7188 48.0422C54.7188 45.1197 52.4942 42.7505 49.75 42.7505C47.0058 42.7505 44.7812 45.1197 44.7812 48.0422C44.7812 50.9647 47.0058 53.3339 49.75 53.3339Z" fill="#070723" fill-opacity="0.5"/>
<path d="M56.7063 32.1664H51.4062C49.4188 22.6413 40.8063 16.2912 31.8625 18.4079C25.2375 19.819 19.9375 25.1107 18.6125 32.1664H16.2938C12.9813 32.1664 10 35.3414 10 38.8692V43.4554C10 45.9248 11.9875 48.0415 14.3062 48.0415H15.3C15.3 43.4554 18.9438 39.5748 23.25 39.5748C27.5562 39.5748 31.2 43.4554 31.2 48.0415H41.8C41.8 43.4554 45.4437 39.5748 49.75 39.5748C54.0563 39.5748 57.7 43.4554 57.7 48.0415H58.6938C61.0125 48.0415 63 45.9248 63 43.4554V39.222C63 35.3414 60.0188 32.1664 56.7063 32.1664ZM23.9125 32.1664C25.5687 25.4635 32.1938 21.9357 38.1562 23.6996C41.8 24.7579 44.7812 27.933 46.1062 32.1664H23.9125ZM23.25 42.7498C20.6 42.7498 18.2812 45.2193 18.2812 48.0415C18.2812 50.8638 20.6 53.3333 23.25 53.3333C25.9 53.3333 28.2188 50.8638 28.2188 48.0415C28.2188 45.2193 25.9 42.7498 23.25 42.7498Z" fill="#070723" fill-opacity="0.5"/>
</svg>
