<svg width="19" height="19" viewBox="0 0 19 19" fill="none" xmlns="http://www.w3.org/2000/svg">
<path d="M9.5 1.1875C11.7046 1.1875 13.8189 2.06328 15.3778 3.62217C16.9367 5.18107 17.8125 7.29539 17.8125 9.5C17.8125 11.7046 16.9367 13.8189 15.3778 15.3778C13.8189 16.9367 11.7046 17.8125 9.5 17.8125C7.29539 17.8125 5.18107 16.9367 3.62217 15.3778C2.06328 13.8189 1.1875 11.7046 1.1875 9.5C1.1875 7.29539 2.06328 5.18107 3.62217 3.62217C5.18107 2.06328 7.29539 1.1875 9.5 1.1875ZM9.5 4.75C9.34923 4.74987 9.2001 4.78119 9.06212 4.84195C8.92414 4.90271 8.80035 4.99158 8.69866 5.10289C8.59697 5.21419 8.5196 5.34548 8.47152 5.48837C8.42343 5.63126 8.40567 5.78261 8.41938 5.93275L8.85281 10.6899C8.86962 10.8498 8.94505 10.9979 9.06455 11.1055C9.18406 11.2131 9.33918 11.2726 9.5 11.2726C9.66082 11.2726 9.81594 11.2131 9.93544 11.1055C10.055 10.9979 10.1304 10.8498 10.1472 10.6899L10.5794 5.93275C10.5931 5.78271 10.5754 5.63146 10.5274 5.48865C10.4794 5.34584 10.4021 5.21461 10.3006 5.10332C10.199 4.99204 10.0753 4.90314 9.93751 4.84231C9.79967 4.78147 9.65067 4.75004 9.5 4.75ZM9.5 14.25C9.75196 14.25 9.99359 14.1499 10.1718 13.9718C10.3499 13.7936 10.45 13.552 10.45 13.3C10.45 13.048 10.3499 12.8064 10.1718 12.6282C9.99359 12.4501 9.75196 12.35 9.5 12.35C9.24804 12.35 9.00641 12.4501 8.82825 12.6282C8.65009 12.8064 8.55 13.048 8.55 13.3C8.55 13.552 8.65009 13.7936 8.82825 13.9718C9.00641 14.1499 9.24804 14.25 9.5 14.25Z" fill="#FF5958"/>
</svg>
